<!-- Generated by IcoMoon.io -->

<svg width="58" height="57" viewBox="0 0 58 57" fill="none" xmlns="http://www.w3.org/2000/svg">
<title>AUD</title>
<g filter="url(#filter0_d)">
<rect x="1" y="2" width="48" height="47" rx="9" fill="white"/>
<rect x="1.5" y="2.5" width="47" height="46" rx="8.5" stroke="#DE8D06"/>
</g>
<g clip-path="url(#clip0)">
<path d="M32.8927 26.8904C32.8927 26.494 32.5712 26.1725 32.1745 26.1725C31.7779 26.1725 31.4564 26.494 31.4564 26.8904C31.4564 30.4031 28.5988 33.2606 25.0862 33.2606C21.5737 33.2606 18.7162 30.4031 18.7162 26.8904C18.7162 26.494 18.3947 26.1725 17.9981 26.1725C17.6014 26.1725 17.2799 26.494 17.2799 26.8904C17.2799 30.953 20.399 34.2997 24.368 34.6635V36.5967H21.7031C21.3064 36.5967 20.9849 36.9182 20.9849 37.3149C20.9849 37.7115 21.3064 38.033 21.7031 38.033H28.4695C28.866 38.033 29.1875 37.7115 29.1875 37.3149C29.1875 36.9182 28.866 36.5967 28.4695 36.5967H25.8043V34.6635C29.7735 34.2999 32.8927 30.953 32.8927 26.8904Z" fill="#DE8D06"/>
<path d="M25.0861 31.4887C27.6215 31.4887 29.6843 29.4259 29.6843 26.8905V18.5511C29.6843 16.0158 27.6215 13.953 25.0861 13.953C22.5508 13.953 20.488 16.0158 20.488 18.5511V26.8905C20.488 29.4259 22.5508 31.4887 25.0861 31.4887Z" fill="#DE8D06"/>
</g>
<defs>
<filter id="filter0_d" x="0" y="0" width="58" height="57" filterUnits="userSpaceOnUse" color-interpolation-filters="sRGB">
<feFlood flood-opacity="0" result="BackgroundImageFix"/>
<feColorMatrix in="SourceAlpha" type="matrix" values="0 0 0 0 0 0 0 0 0 0 0 0 0 0 0 0 0 0 127 0"/>
<feMorphology radius="1" operator="dilate" in="SourceAlpha" result="effect1_dropShadow"/>
<feOffset dx="4" dy="3"/>
<feGaussianBlur stdDeviation="2"/>
<feColorMatrix type="matrix" values="0 0 0 0 0.125 0 0 0 0 0.125 0 0 0 0 0.125 0 0 0 0.26 0"/>
<feBlend mode="normal" in2="BackgroundImageFix" result="effect1_dropShadow"/>
<feBlend mode="normal" in="SourceGraphic" in2="effect1_dropShadow" result="shape"/>
</filter>
<clipPath id="clip0">
<rect width="24.08" height="24.08" fill="white" transform="translate(13 14)"/>
</clipPath>
</defs>
</svg>
