<svg width="57" height="57" viewBox="0 0 57 57" fill="none" xmlns="http://www.w3.org/2000/svg">
<title>camera</title>
<g filter="url(#filter0_d)">
<rect x="1" y="2" width="47" height="47" rx="9" fill="white"/>
<rect x="1.5" y="2.5" width="46" height="46" rx="8.5" stroke="#DE8D06"/>
</g>
<g clip-path="url(#clip0)">
<path d="M26.7068 18.5684H14.8446C13.2801 18.5684 12 19.8977 12 21.5224V31.4776C12 33.1023 13.2801 34.4316 14.8446 34.4316H26.7068C28.2713 34.4316 29.5514 33.1023 29.5514 31.4776V21.5224C29.5514 19.8681 28.2713 18.5684 26.7068 18.5684Z" fill="#DE8D06"/>
<path d="M35.8952 20.1931C35.7245 20.2226 35.5539 20.3113 35.4116 20.3999L30.974 23.0585V29.9119L35.4401 32.5705C36.265 33.0727 37.2891 32.7773 37.7727 31.9206C37.9149 31.6548 38.0003 31.3594 38.0003 31.0344V21.9064C38.0003 20.8134 37.0046 19.9272 35.8952 20.1931Z" fill="#DE8D06"/>
</g>
<defs>
<filter id="filter0_d" x="0" y="0" width="57" height="57" filterUnits="userSpaceOnUse" color-interpolation-filters="sRGB">
<feFlood flood-opacity="0" result="BackgroundImageFix"/>
<feColorMatrix in="SourceAlpha" type="matrix" values="0 0 0 0 0 0 0 0 0 0 0 0 0 0 0 0 0 0 127 0"/>
<feMorphology radius="1" operator="dilate" in="SourceAlpha" result="effect1_dropShadow"/>
<feOffset dx="4" dy="3"/>
<feGaussianBlur stdDeviation="2"/>
<feColorMatrix type="matrix" values="0 0 0 0 0.125 0 0 0 0 0.125 0 0 0 0 0.125 0 0 0 0.26 0"/>
<feBlend mode="normal" in2="BackgroundImageFix" result="effect1_dropShadow"/>
<feBlend mode="normal" in="SourceGraphic" in2="effect1_dropShadow" result="shape"/>
</filter>
<clipPath id="clip0">
<rect width="26" height="27" fill="white" transform="translate(12 13)"/>
</clipPath>
</defs>
</svg>
