<!-- Generated by IcoMoon.io -->

<svg width="59" height="70" viewBox="0 0 59 70" fill="none" xmlns="http://www.w3.org/2000/svg">
<title>chat-unread</title>
<g filter="url(#filter0_d)">
<rect x="1" y="15" width="47" height="47" rx="9" fill="white"/>
<rect x="1.5" y="15.5" width="46" height="46" rx="8.5" stroke="#DE8D06"/>
</g>
<path d="M17.278 47.1521C16.2485 47.1521 15.0262 45.8929 15.0262 44.9003V36.652H14.5258C13.6891 36.652 13 37.3369 13 38.1778V52.0002L15.9408 49.0593H26.7855C27.6263 49.0593 28.3113 48.3333 28.3113 47.4925V47.148C28.3113 47.1521 17.278 47.1521 17.278 47.1521Z" fill="#DE8D06"/>
<path d="M32.2444 31H18.1554C17.1997 31 16.3999 31.7998 16.3999 32.7555V44.1702C16.3999 45.1259 17.1997 45.9257 18.1554 45.9257H30.1813L33.9999 48.6V32.7555C33.9999 31.7998 33.2001 31 32.2444 31Z" fill="#DE8D06"/>
<circle r="16" transform="matrix(-1 0 0 1 43 16)" fill="#F5272A"/>
<path d="M41.5625 22H32.958V20.5322L37.2207 15.8828C37.8359 15.1973 38.2725 14.626 38.5303 14.1689C38.7939 13.7061 38.9258 13.2432 38.9258 12.7803C38.9258 12.1709 38.7529 11.6787 38.4072 11.3037C38.0674 10.9287 37.6074 10.7412 37.0273 10.7412C36.3359 10.7412 35.7998 10.9521 35.4189 11.374C35.0381 11.7959 34.8477 12.373 34.8477 13.1055H32.7119C32.7119 12.3262 32.8877 11.626 33.2393 11.0049C33.5967 10.3779 34.1035 9.8916 34.7598 9.5459C35.4219 9.2002 36.1836 9.02734 37.0449 9.02734C38.2871 9.02734 39.2656 9.34082 39.9805 9.96777C40.7012 10.5889 41.0615 11.4502 41.0615 12.5518C41.0615 13.1904 40.8799 13.8613 40.5166 14.5645C40.1592 15.2617 39.5703 16.0557 38.75 16.9463L35.6211 20.2949H41.5625V22ZM45.6582 14.626H46.959C47.6152 14.6201 48.1338 14.4502 48.5146 14.1162C48.9014 13.7822 49.0947 13.2988 49.0947 12.666C49.0947 12.0566 48.9336 11.585 48.6113 11.251C48.2949 10.9111 47.8086 10.7412 47.1523 10.7412C46.5781 10.7412 46.1064 10.9082 45.7373 11.2422C45.3682 11.5703 45.1836 12.001 45.1836 12.5342H43.0479C43.0479 11.8779 43.2207 11.2803 43.5664 10.7412C43.918 10.2021 44.4043 9.7832 45.0254 9.48438C45.6523 9.17969 46.3525 9.02734 47.126 9.02734C48.4033 9.02734 49.4053 9.34961 50.1318 9.99414C50.8643 10.6328 51.2305 11.5234 51.2305 12.666C51.2305 13.2402 51.0459 13.7822 50.6768 14.292C50.3135 14.7959 49.8418 15.1768 49.2617 15.4346C49.9648 15.6748 50.498 16.0527 50.8613 16.5684C51.2305 17.084 51.415 17.6992 51.415 18.4141C51.415 19.5625 51.0195 20.4766 50.2285 21.1562C49.4434 21.8359 48.4092 22.1758 47.126 22.1758C45.8955 22.1758 44.8877 21.8477 44.1025 21.1914C43.3174 20.5352 42.9248 19.6621 42.9248 18.5723H45.0605C45.0605 19.1348 45.248 19.5918 45.623 19.9434C46.0039 20.2949 46.5137 20.4707 47.1523 20.4707C47.8145 20.4707 48.3359 20.2949 48.7168 19.9434C49.0977 19.5918 49.2881 19.082 49.2881 18.4141C49.2881 17.7402 49.0889 17.2217 48.6904 16.8584C48.292 16.4951 47.7002 16.3135 46.915 16.3135H45.6582V14.626Z" fill="#EEEEEE"/>
<defs>
<filter id="filter0_d" x="0" y="13" width="57" height="57" filterUnits="userSpaceOnUse" color-interpolation-filters="sRGB">
<feFlood flood-opacity="0" result="BackgroundImageFix"/>
<feColorMatrix in="SourceAlpha" type="matrix" values="0 0 0 0 0 0 0 0 0 0 0 0 0 0 0 0 0 0 127 0"/>
<feMorphology radius="1" operator="dilate" in="SourceAlpha" result="effect1_dropShadow"/>
<feOffset dx="4" dy="3"/>
<feGaussianBlur stdDeviation="2"/>
<feColorMatrix type="matrix" values="0 0 0 0 0.125 0 0 0 0 0.125 0 0 0 0 0.125 0 0 0 0.26 0"/>
<feBlend mode="normal" in2="BackgroundImageFix" result="effect1_dropShadow"/>
<feBlend mode="normal" in="SourceGraphic" in2="effect1_dropShadow" result="shape"/>
</filter>
</defs>
</svg>
