<svg width="57" height="57" viewBox="0 0 57 57" fill="none" xmlns="http://www.w3.org/2000/svg">
<g filter="url(#filter0_d)">
<rect x="1" y="2" width="47" height="47" rx="9" fill="white"/>
<rect x="1.5" y="2.5" width="46" height="46" rx="8.5" stroke="#DE8D06"/>
</g>
<path d="M27.8212 37.7858H28.8926V38.8572H27.8212V37.7858Z" fill="#DE8D06"/>
<path d="M19.6443 32.4997L19.6451 32.4999C20.0529 32.6504 20.3219 33.0392 20.3219 33.4715V34.0714H29.4635V33.4999C29.4635 33.2764 29.5358 33.0589 29.6694 32.8799C29.6694 32.8799 29.6695 32.8798 29.6695 32.8798L30.0701 33.1789C30.2622 32.9215 30.4321 32.7052 30.5817 32.5148L19.6443 32.4997ZM19.6443 32.4997C19.6445 32.4997 19.6442 32.4996 19.6437 32.4994M19.6443 32.4997L19.6437 32.4994M29.4725 34.5714C29.4721 34.5531 29.4713 34.5335 29.4703 34.5091L29.4702 34.506C29.4666 34.3962 29.463 34.2812 29.4635 34.1717C29.4635 34.1713 29.4635 34.1709 29.4635 34.1705L29.4725 34.5714ZM29.4725 34.5714H19.8288C19.8219 34.4267 19.8219 34.2831 19.8219 34.1481V34.1481V33.4715C19.8219 33.2477 19.6826 33.0467 19.4721 32.9691L29.4725 34.5714ZM14.9276 20.424C14.9273 20.4245 14.927 20.425 14.9268 20.4254C14.9255 20.4276 14.9246 20.4286 14.9246 20.4286C14.9245 20.4287 14.9257 20.4273 14.9287 20.4248L14.9277 20.4237L14.9276 20.424ZM14.9276 20.424L14.6052 20.0435C14.2441 20.3499 14.5072 20.8856 14.7916 21.281L14.9276 20.424ZM19.6437 32.4994C19.5943 32.4799 16.9566 31.435 16.9556 28.0583L19.6437 32.4994ZM31.0707 22.6463V27.3803L16.9556 28.0582C16.9556 27.16 16.8389 25.8528 16.5677 24.5524C16.299 23.264 15.8657 21.9179 15.1975 20.989L15.1975 20.989C15.0674 20.8081 14.974 20.6363 14.941 20.506C14.9297 20.4613 14.9291 20.4353 14.9298 20.4239C15.0104 20.3566 15.2001 20.2887 15.4531 20.2973C15.709 20.306 15.8862 20.3878 15.9525 20.4544C16.2217 20.7243 16.9137 21.6616 17.6705 24.5111L17.6706 24.5114C17.6715 24.5148 17.6725 24.5187 17.6736 24.523C17.6952 24.6051 17.7537 24.8281 17.8987 25.0258C18.075 25.2661 18.375 25.4632 18.7997 25.4257C19.337 25.3809 19.7493 24.9308 19.7493 24.3929V12.6044H19.7493L19.7493 12.6017C19.7471 12.2013 19.9129 11.794 20.1041 11.6017L20.1048 11.6011C20.1937 11.5114 20.2541 11.5 20.2918 11.5C20.3658 11.5 20.5067 11.5537 20.657 11.7885C20.8009 12.0135 20.8922 12.3215 20.8922 12.6072C20.8922 12.6072 20.8922 12.6073 20.8922 12.6073V19.0357V23.3214C20.8922 23.8933 21.356 24.3571 21.928 24.3571C22.4999 24.3571 22.9637 23.8933 22.9637 23.3214V19.0357C22.9637 18.8616 23.0369 18.658 23.1709 18.5008C23.3007 18.3487 23.4621 18.2671 23.6347 18.2671C23.6856 18.2671 23.7945 18.2988 23.919 18.5282C24.0387 18.7485 24.1065 19.0466 24.1065 19.2939L24.1065 19.298L24.1167 20.5359C24.1113 20.5647 24.1065 20.6016 24.1065 20.6429V23.3214C24.1065 23.8933 24.5703 24.3571 25.1422 24.3571C25.7142 24.3571 26.178 23.8933 26.178 23.3214V20.7519C26.1833 20.7244 26.1887 20.6869 26.1887 20.6423C26.1887 20.4733 26.2883 20.2007 26.4859 19.9581C26.6897 19.7078 26.8878 19.6198 26.9926 19.6198C27.1067 19.6198 27.3192 19.7176 27.5365 19.9917C27.7459 20.2558 27.8565 20.5584 27.8565 20.7554V21.7142V22.7857V24.393C27.8565 24.965 28.3203 25.4288 28.8922 25.4288C29.4641 25.4288 29.9279 24.965 29.9279 24.393V22.7858C29.9279 22.5197 30.0024 22.1897 30.1305 21.9404C30.2725 21.6638 30.3846 21.6502 30.3911 21.6502C30.4968 21.6502 30.659 21.7223 30.8204 21.9412C30.9775 22.1541 31.0692 22.4259 31.0707 22.6463Z" fill="#DE8D06" stroke="#DE8D06"/>
<path d="M31.0354 35.6428H30.4971H19.3541H18.7139V41H31.0353L31.0354 35.6428ZM20.3211 36.7143H22.464C22.7598 36.7143 22.9997 36.9542 22.9997 37.25C22.9997 37.5458 22.7598 37.7858 22.464 37.7858H20.3211C20.0253 37.7858 19.7853 37.5458 19.7853 37.25C19.7853 36.9542 20.0254 36.7143 20.3211 36.7143ZM20.8568 39.9285H20.3211C20.0253 39.9285 19.7853 39.6886 19.7853 39.3928C19.7853 39.097 20.0253 38.8571 20.3211 38.8571H20.8568C21.1526 38.8571 21.3925 39.097 21.3925 39.3928C21.3925 39.6886 21.1524 39.9285 20.8568 39.9285ZM25.1425 39.9285H22.9996C22.7038 39.9285 22.4638 39.6886 22.4638 39.3928C22.4638 39.097 22.7038 38.8571 22.9996 38.8571H25.1425C25.4383 38.8571 25.6782 39.097 25.6782 39.3928C25.6782 39.6886 25.4381 39.9285 25.1425 39.9285ZM25.1425 37.7858H24.6068C24.311 37.7858 24.071 37.5458 24.071 37.25C24.071 36.9542 24.311 36.7143 24.6068 36.7143H25.1425C25.4383 36.7143 25.6782 36.9542 25.6782 37.25C25.6782 37.5457 25.4381 37.7858 25.1425 37.7858ZM29.964 39.3928C29.964 39.6886 29.724 39.9285 29.4282 39.9285H27.2854C26.9897 39.9285 26.7497 39.6886 26.7497 39.3928V37.25C26.7497 36.9542 26.9897 36.7143 27.2854 36.7143H29.4282C29.724 36.7143 29.964 36.9542 29.964 37.25V39.3928Z" fill="#DE8D06"/>
<defs>
<filter id="filter0_d" x="0" y="0" width="57" height="57" filterUnits="userSpaceOnUse" color-interpolation-filters="sRGB">
<feFlood flood-opacity="0" result="BackgroundImageFix"/>
<feColorMatrix in="SourceAlpha" type="matrix" values="0 0 0 0 0 0 0 0 0 0 0 0 0 0 0 0 0 0 127 0"/>
<feMorphology radius="1" operator="dilate" in="SourceAlpha" result="effect1_dropShadow"/>
<feOffset dx="4" dy="3"/>
<feGaussianBlur stdDeviation="2"/>
<feColorMatrix type="matrix" values="0 0 0 0 0.125 0 0 0 0 0.125 0 0 0 0 0.125 0 0 0 0.26 0"/>
<feBlend mode="normal" in2="BackgroundImageFix" result="effect1_dropShadow"/>
<feBlend mode="normal" in="SourceGraphic" in2="effect1_dropShadow" result="shape"/>
</filter>
</defs>
</svg>
