<!-- Generated by IcoMoon.io -->
<svg width="58" height="57" viewBox="0 0 58 57" fill="none" xmlns="http://www.w3.org/2000/svg">
<title>rec</title>
<g filter="url(#filter0_d)">
<rect x="1" y="2" width="48" height="47" rx="9" fill="white"/>
<rect x="1.5" y="2.5" width="47" height="46" rx="8.5" stroke="#DE8D06"/>
</g>
<path d="M24.5 42C15.4373 42 8 34.5627 8 25.5C8 16.4373 15.4373 9 24.5 9C33.5627 9 41 16.4373 41 25.5C41 34.5627 33.5627 42 24.5 42Z" fill="#DEECF1"/>
<path d="M41 25.5C41 16.4373 33.5627 9 24.5 9V42C33.5627 42 41 34.5627 41 25.5Z" fill="#C6E2E7"/>
<path d="M24.5 18.7324C20.7688 18.7324 17.7324 21.7688 17.7324 25.5C17.7324 29.2312 20.7688 32.2676 24.5 32.2676C28.2312 32.2676 31.2676 29.2312 31.2676 25.5C31.2676 21.7688 28.2312 18.7324 24.5 18.7324Z" fill="#DE8D06"/>
<path d="M31.2676 25.5C31.2676 21.7688 28.2312 18.7324 24.5 18.7324V32.2676C28.2312 32.2676 31.2676 29.2312 31.2676 25.5Z" fill="#DE8D06"/>
<defs>
<filter id="filter0_d" x="0" y="0" width="58" height="57" filterUnits="userSpaceOnUse" color-interpolation-filters="sRGB">
<feFlood flood-opacity="0" result="BackgroundImageFix"/>
<feColorMatrix in="SourceAlpha" type="matrix" values="0 0 0 0 0 0 0 0 0 0 0 0 0 0 0 0 0 0 127 0"/>
<feMorphology radius="1" operator="dilate" in="SourceAlpha" result="effect1_dropShadow"/>
<feOffset dx="4" dy="3"/>
<feGaussianBlur stdDeviation="2"/>
<feColorMatrix type="matrix" values="0 0 0 0 0.125 0 0 0 0 0.125 0 0 0 0 0.125 0 0 0 0.26 0"/>
<feBlend mode="normal" in2="BackgroundImageFix" result="effect1_dropShadow"/>
<feBlend mode="normal" in="SourceGraphic" in2="effect1_dropShadow" result="shape"/>
</filter>
</defs>
</svg>
