<!-- Generated by IcoMoon.io -->

<svg width="57" height="57" viewBox="0 0 57 57" fill="none" xmlns="http://www.w3.org/2000/svg">
<title>security</title>
<g filter="url(#filter0_d)">
<rect x="1" y="2" width="47" height="47" rx="9" fill="white"/>
<rect x="1.5" y="2.5" width="46" height="46" rx="8.5" stroke="#DE8D06"/>
</g>
<path d="M24.737 13.4299L24 13L23.263 13.4299C19.8094 15.4465 15.9402 16.5008 12 16.5008V22.5555C12 30.3197 16.9417 37.0858 24 39C31.0583 37.0858 36 30.3197 36 22.5606V16.5059C32.0646 16.5059 28.1906 15.4465 24.737 13.4299Z" fill="#FF7058"/>
<path d="M24.0001 36.7582C18.0851 34.9157 13.9985 29.1527 13.9985 22.5606V18.589C17.4899 18.2921 20.9056 17.2275 24.0001 15.4618C27.0946 17.2275 30.5103 18.2921 34.0017 18.589V22.5606C34.0017 29.1527 29.9151 34.9157 24.0001 36.7582Z" fill="#FFD15C"/>
<path d="M21.9402 31.7682L17.7307 27.2284L19.8472 24.9252L21.9354 27.1772L28.148 20.4469L30.2693 22.7449L21.9402 31.7682Z" fill="white"/>
<defs>
<filter id="filter0_d" x="0" y="0" width="57" height="57" filterUnits="userSpaceOnUse" color-interpolation-filters="sRGB">
<feFlood flood-opacity="0" result="BackgroundImageFix"/>
<feColorMatrix in="SourceAlpha" type="matrix" values="0 0 0 0 0 0 0 0 0 0 0 0 0 0 0 0 0 0 127 0"/>
<feMorphology radius="1" operator="dilate" in="SourceAlpha" result="effect1_dropShadow"/>
<feOffset dx="4" dy="3"/>
<feGaussianBlur stdDeviation="2"/>
<feColorMatrix type="matrix" values="0 0 0 0 0.125 0 0 0 0 0.125 0 0 0 0 0.125 0 0 0 0.26 0"/>
<feBlend mode="normal" in2="BackgroundImageFix" result="effect1_dropShadow"/>
<feBlend mode="normal" in="SourceGraphic" in2="effect1_dropShadow" result="shape"/>
</filter>
</defs>
</svg>
