<svg width="57" height="57" viewBox="0 0 57 57" fill="none" xmlns="http://www.w3.org/2000/svg">
<g filter="url(#filter0_d)">
<rect x="1" y="2" width="47" height="47" rx="9" fill="white"/>
<rect x="1.5" y="2.5" width="46" height="46" rx="8.5" stroke="#DE8D06"/>
</g>
<path d="M24.0001 36.7582C18.0851 34.9157 13.9985 29.1527 13.9985 22.5606V18.589C17.4899 18.2921 20.9056 17.2275 24.0001 15.4618C27.0946 17.2275 30.5103 18.2921 34.0017 18.589V22.5606C34.0017 29.1527 29.9151 34.9157 24.0001 36.7582Z" fill="#FFD15C"/>
<path d="M21.9402 31.7682L17.7307 27.2284L19.8472 24.9252L21.9354 27.1772L28.148 20.4469L30.2693 22.7449L21.9402 31.7682Z" fill="white"/>
<path d="M34.7323 30.3626C33.9747 32.2566 32.8291 33.9034 31.3268 35.2569C29.6167 36.7974 27.3775 38.0215 24.6713 38.8947C24.5825 38.9232 24.4898 38.9466 24.3967 38.9639C24.2737 38.9863 24.1486 38.9984 24.0245 39H24.0002C23.868 39 23.7351 38.9877 23.6033 38.9639C23.5102 38.9466 23.4188 38.9232 23.3304 38.8953C20.621 38.0235 18.379 36.7999 16.6672 35.2594C15.1642 33.906 14.0188 32.2602 13.2624 30.3662C11.8869 26.9226 11.9652 23.1291 12.0282 20.0806L12.0292 20.0338C12.0419 19.7821 12.0501 19.5176 12.0546 19.2257C12.0776 17.7921 13.3131 16.6061 14.8673 16.5261C18.1076 16.3593 20.6143 15.3843 22.7561 13.4584L22.7748 13.4425C23.1305 13.1416 23.5786 12.994 24.0245 13.0002C24.4546 13.0053 24.8829 13.1527 25.2258 13.4425L25.2441 13.4584C27.3863 15.3843 29.893 16.3593 33.1334 16.5261C34.6875 16.6061 35.923 17.7921 35.946 19.2257C35.9506 19.5196 35.9587 19.7837 35.9714 20.0338L35.9721 20.0536C36.0348 23.1078 36.1127 26.9089 34.7323 30.3626Z" fill="#00DD80"/>
<path d="M34.7322 30.3627C33.9746 32.2567 32.829 33.9035 31.3267 35.2569C29.6166 36.7974 27.3774 38.0215 24.6712 38.8947C24.5824 38.9233 24.4897 38.9467 24.3966 38.964C24.2736 38.9864 24.1485 38.9985 24.0244 39.0001V13.0002C24.4545 13.0054 24.8828 13.1528 25.2257 13.4426L25.244 13.4585C27.3862 15.3844 29.8929 16.3593 33.1333 16.5262C34.6874 16.6061 35.9229 17.7921 35.9459 19.2257C35.9505 19.5197 35.9586 19.7837 35.9713 20.0338L35.972 20.0537C36.0347 23.1079 36.1126 26.909 34.7322 30.3627Z" fill="#00AA63"/>
<path d="M31.0236 26C31.0236 29.5652 27.8858 32.4673 24.0245 32.48H23.9997C20.127 32.48 16.9757 29.573 16.9757 26C16.9757 22.4273 20.127 19.5203 23.9997 19.5203H24.0245C27.8858 19.533 31.0236 22.435 31.0236 26Z" fill="white"/>
<path d="M31.0235 26C31.0235 29.5652 27.8857 32.4673 24.0244 32.48V19.5203C27.8857 19.533 31.0235 22.435 31.0235 26Z" fill="#E1EBF0"/>
<path d="M27.1878 25.0668L24.0244 27.9856L23.3409 28.6162C23.1794 28.7651 22.9676 28.8395 22.756 28.8395C22.5443 28.8395 22.3327 28.7651 22.171 28.6162L20.7013 27.2598C20.3784 26.9618 20.3784 26.4792 20.7013 26.1811C21.0239 25.8831 21.5476 25.8831 21.8706 26.1811L22.756 26.9979L26.0185 23.9881C26.3415 23.69 26.8653 23.69 27.1878 23.9881C27.5108 24.2861 27.5108 24.7693 27.1878 25.0668Z" fill="#B4D2D7"/>
<path d="M27.1878 25.0668L24.0244 27.9856V25.8276L26.0185 23.9881C26.3415 23.69 26.8652 23.69 27.1878 23.9881C27.5107 24.2861 27.5107 24.7693 27.1878 25.0668Z" fill="#6FA5AA"/>
<defs>
<filter id="filter0_d" x="0" y="0" width="57" height="57" filterUnits="userSpaceOnUse" color-interpolation-filters="sRGB">
<feFlood flood-opacity="0" result="BackgroundImageFix"/>
<feColorMatrix in="SourceAlpha" type="matrix" values="0 0 0 0 0 0 0 0 0 0 0 0 0 0 0 0 0 0 127 0"/>
<feMorphology radius="1" operator="dilate" in="SourceAlpha" result="effect1_dropShadow"/>
<feOffset dx="4" dy="3"/>
<feGaussianBlur stdDeviation="2"/>
<feColorMatrix type="matrix" values="0 0 0 0 0.125 0 0 0 0 0.125 0 0 0 0 0.125 0 0 0 0.26 0"/>
<feBlend mode="normal" in2="BackgroundImageFix" result="effect1_dropShadow"/>
<feBlend mode="normal" in="SourceGraphic" in2="effect1_dropShadow" result="shape"/>
</filter>
</defs>
</svg>

