<svg width="58" height="57" viewBox="0 0 58 57" fill="none" xmlns="http://www.w3.org/2000/svg">
<g filter="url(#filter0_d)">
<rect x="1" y="2" width="48" height="47" rx="9" fill="white"/>
<rect x="1.5" y="2.5" width="47" height="46" rx="8.5" stroke="#DE8D06"/>
</g>
<path fill-rule="evenodd" clip-rule="evenodd" d="M34.8333 34.125C36.2542 34.125 37.4037 32.8312 37.4037 31.25L37.4167 16.875C37.4167 15.2794 36.2542 14 34.8333 14H14.1667C12.7329 14 11.5833 15.2794 11.5833 16.875V31.25C11.5833 32.8312 12.7329 34.125 14.1667 34.125H9V37H40V34.125H34.8333ZM14.1667 31.25V16.875H34.8333V31.2644L14.1667 31.25ZM25.7917 21.3744C20.7671 22.1506 18.765 25.9744 18.0417 29.8125C19.8371 27.1244 22.2008 25.9025 25.7917 25.9025V29.0506L30.9583 23.6744L25.7917 18.3125V21.3744Z" fill="#DE8D06"/>
<defs>
<filter id="filter0_d" x="0" y="0" width="58" height="57" filterUnits="userSpaceOnUse" color-interpolation-filters="sRGB">
<feFlood flood-opacity="0" result="BackgroundImageFix"/>
<feColorMatrix in="SourceAlpha" type="matrix" values="0 0 0 0 0 0 0 0 0 0 0 0 0 0 0 0 0 0 127 0"/>
<feMorphology radius="1" operator="dilate" in="SourceAlpha" result="effect1_dropShadow"/>
<feOffset dx="4" dy="3"/>
<feGaussianBlur stdDeviation="2"/>
<feColorMatrix type="matrix" values="0 0 0 0 0.125 0 0 0 0 0.125 0 0 0 0 0.125 0 0 0 0.26 0"/>
<feBlend mode="normal" in2="BackgroundImageFix" result="effect1_dropShadow"/>
<feBlend mode="normal" in="SourceGraphic" in2="effect1_dropShadow" result="shape"/>
</filter>
</defs>
</svg>
